<svg xmlns="http://www.w3.org/2000/svg" viewBox="0 0 64 64" fill="none">
  <defs>
    <linearGradient id="g" x1="8" y1="8" x2="56" y2="56" gradientUnits="userSpaceOnUse">
      <stop stop-color="#1D4ED8" />
      <stop offset="1" stop-color="#0EA5E9" />
    </linearGradient>
  </defs>
  <rect x="6" y="6" width="52" height="52" rx="14" fill="url(#g)" />
  <path d="M24 20a8 8 0 1 1 16 0v12a8 8 0 1 1-16 0V20Z" fill="#F8FAFC"/>
  <path d="M20 31a1.5 1.5 0 0 1 3 0c0 5 4 9 9 9s9-4 9-9a1.5 1.5 0 0 1 3 0c0 6.06-4.5 11.07-10.5 11.86V47h4a1.5 1.5 0 0 1 0 3h-11a1.5 1.5 0 0 1 0-3h4v-4.14C24.5 42.07 20 37.06 20 31Z" fill="#E2E8F0"/>
</svg>
